<svg enable-background="new -1.5 -1.5 18 18" height="18" viewBox="-1.5 -1.5 18 18" width="18" xmlns="http://www.w3.org/2000/svg"><path d="m7.5-1.515c-4.272 0-7.732 3.461-7.732 7.732 0 1.551.432 3.012 1.246 4.205 1.16 1.703 6.488 6.093 6.488 6.093s5.073-3.979 6.408-5.976c.829-1.234 1.323-2.719 1.323-4.319-.001-4.274-3.462-7.735-7.733-7.735zm0 11.121c-1.967 0-3.559-1.593-3.559-3.558 0-1.964 1.594-3.557 3.559-3.557 1.964 0 3.557 1.593 3.557 3.557.002 1.966-1.593 3.558-3.557 3.558z" fill="#f2ede7"/></svg>