<?xml version="1.0" encoding="utf-8"?>
<!-- Generator: Adobe Illustrator 16.0.4, SVG Export Plug-In . SVG Version: 6.00 Build 0)  -->
<!DOCTYPE svg PUBLIC "-//W3C//DTD SVG 1.1//EN" "http://www.w3.org/Graphics/SVG/1.1/DTD/svg11.dtd">
<svg version="1.1" id="Layer_1" xmlns="http://www.w3.org/2000/svg" xmlns:xlink="http://www.w3.org/1999/xlink" x="0px" y="0px"
	 width="69.535px" height="69.535px" viewBox="0 0 69.535 69.535" enable-background="new 0 0 69.535 69.535" xml:space="preserve">
<g>
	<g>
		<g>
			<path fill="#28424C" d="M57.598,30.315c0-12.608-10.223-22.83-22.83-22.83s-22.83,10.222-22.83,22.83
				c0,4.581,1.279,8.89,3.676,12.412c3.424,5.032,19.153,17.986,19.153,17.986s14.979-11.749,18.924-17.641
				C56.137,39.418,57.598,35.044,57.598,30.315z"/>
		</g>
	</g>
	<path fill="#48768C" d="M38.604,41.392c-5.206,0-6.699-5.506-5.14-11.111l1.227,0.563c-0.829,3.947,0.895,5.506,2.752,5.506
		c2.819,0,4.577-3.682,4.744-8.06c0.132-3.781-0.996-5.473-2.721-5.473c-1.592,0-3.384,1.459-3.946,4.179l-3.118-1.526
		c1.36-5.207,4.345-7.628,7.928-7.628c3.847,0,8.391,2.753,7.926,11.145C47.793,36.947,43.282,41.392,38.604,41.392z M31.409,46.134
		l-5.174-1.524l4.477-19.702c0.265-1.16,0.166-2.354-0.829-2.354c-1.194,0-1.724,1.692-1.127,5.141l-4.445,0.862
		c-3.019-5.805,0.133-10.713,5.307-10.315c3.782,0.298,4.71,3.151,5.407,5.539c0.099,0.332,0.73,2.521,0.629,2.554L31.409,46.134z"
		/>
</g>
</svg>
