<svg enable-background="new 0 0 69.535 69.535" height="69.535" viewBox="0 0 69.535 69.535" width="69.535" xmlns="http://www.w3.org/2000/svg"><path d="m57.598 30.315c0-12.608-10.223-22.83-22.83-22.83s-22.83 10.222-22.83 22.83c0 4.581 1.279 8.89 3.676 12.412 3.424 5.032 19.153 17.986 19.153 17.986s14.979-11.749 18.924-17.641c2.446-3.654 3.907-8.028 3.907-12.757z" fill="#28424c"/><path d="m38.604 41.392c-5.206 0-6.699-5.506-5.14-11.111l1.227.563c-.829 3.947.895 5.506 2.752 5.506 2.819 0 4.577-3.682 4.744-8.06.132-3.781-.996-5.473-2.721-5.473-1.592 0-3.384 1.459-3.946 4.179l-3.118-1.526c1.36-5.207 4.345-7.628 7.928-7.628 3.847 0 8.391 2.753 7.926 11.145-.463 7.96-4.974 12.405-9.652 12.405zm-7.195 4.742-5.174-1.524 4.477-19.702c.265-1.16.166-2.354-.829-2.354-1.194 0-1.724 1.692-1.127 5.141l-4.445.862c-3.019-5.805.133-10.713 5.307-10.315 3.782.298 4.71 3.151 5.407 5.539.099.332.73 2.521.629 2.554z" fill="#48768c"/></svg>