<?xml version="1.0" encoding="utf-8"?>
<!-- Generator: Adobe Illustrator 16.0.4, SVG Export Plug-In . SVG Version: 6.00 Build 0)  -->
<!DOCTYPE svg PUBLIC "-//W3C//DTD SVG 1.1//EN" "http://www.w3.org/Graphics/SVG/1.1/DTD/svg11.dtd">
<svg version="1.1" id="Layer_1" xmlns="http://www.w3.org/2000/svg" xmlns:xlink="http://www.w3.org/1999/xlink" x="0px" y="0px"
	 width="90px" height="106px" viewBox="0 0 90 106" enable-background="new 0 0 90 106" xml:space="preserve">
<g>
	<g>
		<path fill="#F2EDE7" d="M88.501,45.79C88.501,21.765,69.023,2.288,45,2.288c-24.025,0-43.501,19.477-43.501,43.502
			c0,8.729,2.435,16.938,7.004,23.647C15.028,79.027,45,103.712,45,103.712s28.541-22.387,36.057-33.614
			C85.717,63.136,88.501,54.8,88.501,45.79z"/>
	</g>
	<g>
		<g>
			<path fill="#83D6FF" d="M80.5,46.116c0-19.606-15.896-35.5-35.5-35.5c-19.606,0-35.5,15.894-35.5,35.5
				c0,7.123,1.987,13.823,5.716,19.299C20.541,73.241,45,93.384,45,93.384s23.291-18.27,29.424-27.432
				C78.229,60.271,80.5,53.47,80.5,46.116z"/>
		</g>
	</g>
	<path fill="#48768C" d="M50.332,63.003c-8.314,0-10.699-8.794-8.209-17.747l1.96,0.9c-1.324,6.304,1.43,8.795,4.396,8.795
		c4.503,0,7.311-5.881,7.578-12.874c0.21-6.04-1.592-8.741-4.347-8.741c-2.542,0-5.404,2.33-6.303,6.674l-4.981-2.437
		c2.172-8.317,6.94-12.185,12.663-12.185c6.145,0,13.402,4.398,12.66,17.801C65.009,55.904,57.805,63.003,50.332,63.003z
		 M38.838,70.578l-8.264-2.435l7.151-31.471c0.423-1.853,0.265-3.761-1.324-3.761c-1.907,0-2.754,2.702-1.801,8.212l-7.1,1.377
		c-4.821-9.271,0.212-17.112,8.477-16.476c6.041,0.477,7.523,5.033,8.636,8.848c0.158,0.53,1.166,4.026,1.005,4.079L38.838,70.578z"
		/>
</g>
</svg>
