<svg enable-background="new 66.09 0 700 480" height="480" viewBox="66.09 0 700 480" width="700" xmlns="http://www.w3.org/2000/svg"><g stroke-miterlimit="10" stroke-width="6.5"><path d="m127.184 38.062-33.427 79.742-8.861 38.662 11.277 65.794 6.847 39.722 36.648 46.718 28.191 5.638 46.718 29.803 39.468 4.027v-5.638l22.554 5.638 42.688 45.106 11.277-12.082 17.72 1.611 28.997 52.759 25.776 12.485v-36.247l36.85-24.164 72.896 1.611v-16.915l50.039-3.222 10.974 7.249 14.498-14.498 18.437 21.748v23.358l37.141 31.414 8.055-8.056v-23.358l-29.802-45.106v-25.777l56.786-70.075v-28.997l11.678-21.748v-38.258l29.762-26.985v-35.44l23.4-26.581-23.4-31.413-10.431-1.611-11.996 37.051-43.581 16.915-10.471 35.441-24.97 4.833-12.171 16.915-24.771 10.875-3.332-26.985-27.385-29.802-19.331 21.748v20.942l-7.25 10.471-11.879-8.054v-23.359l18.324-26.581h-68.466l26.033-26.032-56.64-12.63z" fill="#c2ebff" stroke="#fffefc"/><g fill="none"><path d="m330.161 361.861-12.082-12.082-11.679 11.679" stroke="#fffefc"/><path d="m309.621 340.113-12.082-12.082-11.678 11.679" stroke="#fffefc"/><path d="m310.83 314.741-12.082-12.082-11.679 11.679" stroke="#fffefc"/><path d="m310.83 289.369-12.082-12.082-11.679 11.679" stroke="#fffefc"/><path d="m310.83 265.205-12.082-12.082-11.679 11.679" stroke="#fffefc"/><path d="m310.83 241.041-12.082-12.083-11.679 11.681" stroke="#fffefc"/><path d="m284.249 301.451-12.082-12.082-11.679 11.679" stroke="#fffefc"/><path d="m284.249 277.287-12.082-12.082-11.679 11.679" stroke="#fffefc"/><path d="m284.249 253.123-12.082-12.082-11.679 11.68" stroke="#fffefc"/><path d="m310.83 216.876-12.082-12.082-11.679 11.68" stroke="#fffefc"/><path d="m310.83 192.712-12.082-12.082-11.679 11.68" stroke="#fffefc"/><path d="m310.83 168.548-12.082-12.082-11.679 11.68" stroke="#fffefc"/><path d="m284.249 204.794-12.082-12.082-11.679 11.68" stroke="#fffefc"/><path d="m284.249 180.63-12.082-12.082-11.679 11.68" stroke="#fffefc"/><path d="m258.877 216.876-12.081-12.082-11.68 11.68" stroke="#fffefc"/><path d="m258.877 192.712-12.081-12.082-11.68 11.68" stroke="#fffefc"/><path d="m258.877 241.041-12.081-12.083-11.68 11.681" stroke="#fffefc"/><path d="m260.085 168.548-12.081-12.082-11.68 11.68" stroke="#fffefc"/><path d="m260.085 144.384-12.081-12.082-11.68 11.679" stroke="#fffefc"/><path d="m260.085 120.22-12.081-12.082-11.68 11.679" stroke="#fffefc"/><path d="m260.085 96.056-12.081-12.082-11.68 11.679" stroke="#fffefc"/><path d="m233.506 108.138-12.082-12.082-11.68 11.679" stroke="#fffefc"/><path d="m233.506 83.974-12.082-12.082-11.68 11.679" stroke="#fffefc"/><path d="m568.178 329.24-12.082-12.082-11.679 11.678" stroke="#fffefc"/><path d="m568.178 305.076-12.082-12.083-11.679 11.679" stroke="#fffefc"/><path d="m594.758 317.158-12.082-12.082-11.679 11.678" stroke="#fffefc"/><path d="m594.758 292.993-12.082-12.082-11.679 11.679" stroke="#fffefc"/><path d="m621.338 279.703-12.082-12.082-11.678 11.679" stroke="#fffefc"/><path d="m621.338 255.539-12.082-12.082-11.678 11.68" stroke="#fffefc"/><path d="m647.919 242.249-12.082-12.082-11.679 11.679" stroke="#fffefc"/><path d="m647.919 218.085-12.082-12.082-11.679 11.679" stroke="#fffefc"/><path d="m647.919 193.921-12.082-12.082-11.679 11.679" stroke="#fffefc"/><path d="m512.803 372.332h-20.339v-49.133l12.335-12.334v-45.66l-34.561-34.56v-19.81l22.724-22.722-24.164-24.165v-13.12l-26.73-26.728" stroke="#83d6ff"/><path d="m609.458 186.671v24.164l-22.955 22.956h-30.206l-28.693 28.693-22.805 2.721" stroke="#83d6ff"/><path d="m311.535 90.015h37.556l16.108 12.082v45.509l13.694 13.693v19.331h23.358l29.803 38.763h37.858" stroke="#83d6ff"/><path d="m233.506 249.498-18.123 9.666-34.637-3.625-12.887 58.799" stroke="#83d6ff"/><path d="m492.464 358.639h-24.21l-26.186-35.44-51.898-3.22-10.473-11.279h-33.83" stroke="#83d6ff"/></g></g></svg>