<?xml version="1.0" encoding="utf-8"?>
<!-- Generator: Adobe Illustrator 16.0.4, SVG Export Plug-In . SVG Version: 6.00 Build 0)  -->
<!DOCTYPE svg PUBLIC "-//W3C//DTD SVG 1.1//EN" "http://www.w3.org/Graphics/SVG/1.1/DTD/svg11.dtd">
<svg version="1.1" id="Layer_1" xmlns="http://www.w3.org/2000/svg" xmlns:xlink="http://www.w3.org/1999/xlink" x="0px" y="0px"
	 width="173px" height="231px" viewBox="0 0 173 231" enable-background="new 0 0 173 231" xml:space="preserve">
<g>
	<g>
		<g>
			<path fill="#48768C" d="M108.828,189.846H64.196l-38.105-52.979V81.641c0-33.315,27.105-60.42,60.421-60.42
				c33.315,0,60.419,27.104,60.419,60.42v55.227L108.828,189.846z M67.528,183.346h37.968l34.936-48.573V81.641
				c0-29.731-24.188-53.92-53.919-53.92c-29.732,0-53.921,24.188-53.921,53.92v53.131L67.528,183.346z"/>
		</g>
		<g>
			<g>
				<circle fill="#48768C" cx="64.421" cy="94.685" r="4.438"/>
			</g>
			<g>
				<circle fill="#48768C" cx="109.225" cy="94.685" r="4.437"/>
			</g>
		</g>
		<g>
			<path fill="#48768C" d="M97.392,159.775c-5.828-5.812-15.312-5.828-21.14-0.033l-4.584-4.609
				c8.357-8.312,21.955-8.294,30.313,0.039L97.392,159.775z"/>
		</g>
		<g>
			<path fill="none" stroke="#48768C" stroke-width="6.5" stroke-miterlimit="10" d="M38.78,94.786"/>
		</g>
		<g>
			<path fill="none" stroke="#48768C" stroke-width="6.5" stroke-miterlimit="10" d="M134.866,94.786"/>
		</g>
		<g>
			<path fill="#48768C" d="M101.944,121.052H71.697l15.138-33.15L101.944,121.052z M81.811,114.552h10.028l-5.01-10.99
				L81.811,114.552z"/>
		</g>
		<g>
			<path fill="#48768C" d="M86.823,220.755c-33.16,0-60.137-20.904-60.137-46.599c0-25.695,26.978-46.601,60.137-46.601
				c33.161,0,60.138,20.905,60.138,46.601C146.961,199.851,119.983,220.755,86.823,220.755z M86.823,134.056
				c-29.576,0-53.637,17.989-53.637,40.101c0,22.11,24.062,40.099,53.637,40.099c29.577,0,53.638-17.988,53.638-40.099
				C140.461,152.045,116.399,134.056,86.823,134.056z"/>
		</g>
		<path fill="#48768C" d="M152.941,97.159c2.828,1.736,5.1,4.277,6.5,7.312V81.811c0-18.418-6.906-35.914-19.474-49.415V9.192
			H88.895c-0.475-0.013-0.947-0.009-1.424-0.004l-0.648,0.004c-19.226,0-37.36,7.468-51.062,21.029
			c-0.385,0.381-0.766,0.766-1.142,1.156l4.678,4.513c0.342-0.355,0.688-0.705,1.037-1.05C52.811,22.492,69.32,15.692,86.823,15.692
			l0.709-0.004c0.403-0.004,0.802-0.009,1.204,0.002l44.731,0.002v19.312l0.911,0.944c11.97,12.408,18.562,28.696,18.562,45.863
			V97.159z"/>
		<path fill="#48768C" d="M20.704,96.908V81.811c0-9.501,1.981-18.676,5.889-27.269c0.205-0.45,0.414-0.897,0.624-1.334
			c0.154-0.317,0.309-0.633,0.467-0.947l-5.807-2.921c-0.173,0.344-0.342,0.688-0.514,1.042c-0.233,0.485-0.462,0.975-0.687,1.468
			c-4.295,9.445-6.473,19.525-6.473,29.961v21.804C15.695,100.812,17.957,98.488,20.704,96.908z"/>
		<g>
			<g>
				<path fill="#48768C" d="M146.049,97.913h-17.814V81.641c0-23.005-18.716-41.722-41.722-41.722S44.791,58.635,44.791,81.641
					v16.272H29.084v-6.5h9.207v-9.772c0-26.589,21.632-48.222,48.222-48.222s48.222,21.632,48.222,48.222v9.772h11.314V97.913z"/>
			</g>
		</g>
		<g>
			<g>
				<path fill="#48768C" d="M144.149,131.611h-3.25V91.413h3.25c11.082,0,20.098,9.016,20.098,20.098
					C164.247,122.595,155.231,131.611,144.149,131.611z M147.399,98.306v26.413c5.934-1.461,10.348-6.829,10.348-13.208
					C157.747,105.133,153.333,99.766,147.399,98.306z"/>
			</g>
			<g>
				<path fill="#48768C" d="M32.334,131.611h-3.25c-11.082,0-20.098-9.017-20.098-20.101c0-11.082,9.016-20.098,20.098-20.098h3.25
					V131.611z M25.834,98.306c-5.934,1.46-10.348,6.827-10.348,13.205c0,6.379,4.414,11.747,10.348,13.208V98.306z"/>
			</g>
		</g>
	</g>
	<g>
		<path fill="#48768C" d="M87.55,173.688c-15.772,0-28.128-7.984-28.128-18.177c0-10.193,12.355-18.178,28.128-18.178
			c15.773,0,28.129,7.984,28.129,18.178C115.679,165.703,103.323,173.688,87.55,173.688z M87.55,143.833
			c-11.724,0-21.628,5.348-21.628,11.678c0,6.329,9.904,11.677,21.628,11.677s21.629-5.348,21.629-11.677
			C109.179,149.181,99.273,143.833,87.55,143.833z"/>
	</g>
	<g>
		<path fill="#48768C" d="M26.979,53.558l-5.493-3.476c3.956-6.253,11.646-7.993,17.889-4.046l-3.474,5.494
			C32.688,49.5,29.02,50.333,26.979,53.558z"/>
	</g>
	<g>
		<path fill="#48768C" d="M35.374,49.416c-5.336-5.165-5.473-13.076-0.318-18.4l4.67,4.521c-2.619,2.706-2.548,6.58,0.169,9.21
			L35.374,49.416z"/>
	</g>
</g>
</svg>
