<svg enable-background="new 0 0 417 345" height="345" viewBox="0 0 417 345" width="417" xmlns="http://www.w3.org/2000/svg"><g fill="#f5dfb2"><path d="m50.131 155.609h31.181 66.5 89.404l.174-3.067c.08-1.404 1.916-34.505-.045-45.584-2.041-11.529-11.854-23.849-33.281-23.849h-126.252c-16.578 0-25.726 13.257-27.83 22.168-2.746 11.63-.188 45.876-.078 47.328zm24.681-6.5h-18.634c-.563-8.652-1.946-33.55.13-42.338 1.629-6.899 8.699-17.162 21.504-17.162h126.25c21.908 0 26.115 14.146 26.882 18.481 1.5 8.482.523 32.474.112 41.019h-76.745z"/><path d="m319.438 155.132h84.502v-37.04l-3.268.017c-.225.001-22.789.091-29.433.117-.692-1.173-1.346-2.344-1.983-3.487-4.741-8.495-9.644-17.28-25.756-17.28h-24.062zm78.002-6.5h-71.502v-44.673h17.562c12.295 0 15.561 5.85 20.078 13.947.957 1.713 1.945 3.485 3.066 5.279.943 1.541 1.997 1.541 4.811 1.541 5.281 0 19.521-.068 25.983-.1z"/><path d="m130.812 168.025c8.637 0 15.666-7.028 15.666-15.666s-7.029-15.666-15.666-15.666c-8.639 0-15.666 7.028-15.666 15.666s7.026 15.666 15.666 15.666zm0-24.832c5.053 0 9.166 4.112 9.166 9.166s-4.113 9.166-9.166 9.166c-5.055 0-9.166-4.112-9.166-9.166s4.11-9.166 9.166-9.166z"/><path d="m97.994 168.025c8.638 0 15.666-7.028 15.666-15.666s-7.028-15.666-15.666-15.666c-8.639 0-15.666 7.028-15.666 15.666s7.027 15.666 15.666 15.666zm0-24.832c5.054 0 9.166 4.112 9.166 9.166s-4.112 9.166-9.166 9.166c-5.055 0-9.166-4.112-9.166-9.166s4.111-9.166 9.166-9.166z"/><path d="m167.562 133.275h40.25v-35.5h-40.25zm33.75-6.5h-27.25v-22.5h27.25z"/><path d="m81.869 122.275h30.25v-24.5h-30.25zm23.75-6.5h-17.25v-11.5h17.25z"/><path d="m184.437 101.025h6.5v19.334h-6.5z"/><path d="m170.812 117.109h33.75v6.5h-33.75z"/><path d="m38.228 155.609h17.166v-17.166h-17.166zm10.666-6.5h-4.166v-4.166h4.166z"/><path d="m262.561 155.132h63.455v-36.11h-63.455zm56.955-6.5h-50.455v-23.11h50.455z"/><path d="m294.187 168.025c8.638 0 15.666-7.028 15.666-15.666s-7.028-15.666-15.666-15.666c-8.639 0-15.666 7.028-15.666 15.666s7.027 15.666 15.666 15.666zm0-24.832c5.054 0 9.166 4.112 9.166 9.166s-4.112 9.166-9.166 9.166c-5.055 0-9.166-4.112-9.166-9.166s4.111-9.166 9.166-9.166z"/><path d="m371.613 168.025c8.638 0 15.666-7.028 15.666-15.666s-7.028-15.666-15.666-15.666-15.666 7.028-15.666 15.666 7.029 15.666 15.666 15.666zm0-24.832c5.054 0 9.166 4.112 9.166 9.166s-4.112 9.166-9.166 9.166-9.166-4.112-9.166-9.166 4.113-9.166 9.166-9.166z"/><path d="m333.888 100.709h6.5v51.65h-6.5z"/><path d="m337.138 118.225h35.77v6.5h-35.77z"/><path d="m272.658 125.521h38.194v-25.079h-38.194zm31.696-6.5h-25.194v-12.079h25.194z"/><path d="m302.191 74.432c-.705 3.142-3.314 4.202-5.761 3.769v22.241h-9.348v-22.997c-2.45-.38-4.688-1.391-6.5-2.919v32.416h22.348v-33.829c-.359.305-.588.653-.739 1.319z"/><path d="m301.045 58.33c1.132 1.737 1.796 3.806 1.796 6.029 0 6.112-4.973 11.084-11.084 11.084-3.822 0-7.198-1.945-9.192-4.896-1.496.596-3.034 1.087-4.636 1.398-.708.138-1.371.142-1.988.048 2.849 5.878 8.857 9.951 15.816 9.951 9.695 0 17.584-7.888 17.584-17.584 0-3.138-.836-6.08-2.282-8.633-2.075 1.043-4.129 1.514-6.014 2.603z"/><path d="m264.509 80.846 54.564-31.12-11.689-21.533-54.567 31.121zm45.814-33.613-43.27 24.679-5.486-10.105 43.27-24.679z"/><path d="m290.086 46.534h9.112v6.5h-9.112z" transform="matrix(.8695 -.4939 .4939 .8695 13.8587 152.0246)"/><path d="m326.9 51.779c12.728 0 23.083-10.355 23.083-23.083s-10.355-23.083-23.083-23.083-23.083 10.355-23.083 23.083 10.356 23.083 23.083 23.083zm0-39.666c9.144 0 16.583 7.439 16.583 16.583s-7.439 16.583-16.583 16.583-16.583-7.439-16.583-16.583 7.44-16.583 16.583-16.583z"/><path d="m323.79 8.796h6.5v39.661h-6.5z" transform="matrix(.8944 -.4473 .4473 .8944 21.7407 149.3199)"/><path d="m161.312 337.304h152.736c13.457 0 24.404-10.945 24.404-24.402 0-13.46-10.949-24.405-24.404-24.405l-216.332-.051c-9.874 0-17.906-8.029-17.906-17.901 0-9.873 8.032-17.903 17.905-17.903l261.318.059c13.457 0 24.406-10.948 24.406-24.405s-10.949-24.405-24.404-24.405l-321.319-.047c-9.874 0-17.906-8.031-17.906-17.904s8.032-17.905 17.905-17.905v-6.5c-13.457 0-24.405 10.948-24.405 24.405s10.948 24.404 24.405 24.404l321.318.047c9.873 0 17.906 8.032 17.906 17.905s-8.033 17.905-17.904 17.905l-261.319-.061c-13.458 0-24.406 10.948-24.406 24.405s10.948 24.401 24.405 24.401l216.331.051c9.873 0 17.904 8.029 17.904 17.905 0 9.872-8.031 17.902-17.904 17.902h-152.736v6.5z"/></g><path d="m188.681 250.225 2.016-1.662c1.938-1.594 19.029-15.748 23.208-21.889 3.204-4.707 4.896-10.4 4.896-16.466 0-16.635-13.535-30.169-30.17-30.169s-30.169 13.534-30.169 30.169c0 5.983 1.782 11.812 5.156 16.851 4.883 7.295 22.27 20.975 23.008 21.555z" fill="none" stroke="#48768c" stroke-miterlimit="10" stroke-width="6"/><path d="m293.013 291.917 2.017-1.662c1.937-1.594 19.028-15.748 23.208-21.889 3.204-4.707 4.896-10.4 4.896-16.467 0-16.635-13.534-30.168-30.17-30.168-16.637 0-30.17 13.533-30.17 30.168 0 5.984 1.783 11.812 5.156 16.852 4.883 7.295 22.27 20.973 23.008 21.553z" fill="none" stroke="#48768c" stroke-miterlimit="10" stroke-width="6"/><path d="m159.512 333.218 2.016-1.661c1.938-1.595 19.028-15.747 23.209-21.89 3.203-4.707 4.896-10.399 4.896-16.466 0-16.635-13.535-30.169-30.171-30.169s-30.169 13.534-30.169 30.169c0 5.982 1.781 11.812 5.156 16.851 4.883 7.296 22.27 20.975 23.008 21.555z" fill="none" stroke="#48768c" stroke-miterlimit="10" stroke-width="6"/><path d="m263.43 67.362-17.024 10.141" fill="none" stroke="#f5dfb2" stroke-miterlimit="10" stroke-width="6.5"/><path d="m387.093 121.475v3.856c0 5.163 4.185 9.347 9.348 9.347h4.25" fill="none" stroke="#f5dfb2" stroke-miterlimit="10" stroke-width="6.5"/><path d="m265.199 142.942h-30.946" fill="none" stroke="#f5dfb2" stroke-miterlimit="10" stroke-width="6.5"/><path d="m251.728 133.525v18.834" fill="none" stroke="#f5dfb2" stroke-miterlimit="10" stroke-width="6.5"/></svg>