<svg enable-background="new 0 0 400 250" height="250" viewBox="0 0 400 250" width="400" xmlns="http://www.w3.org/2000/svg"><path d="m192.972 241.26-18.89-9.15-14.62-26.598-5.831-.529-7.09 7.594-23.426-24.754-10.561-.017-21.12-2.155-24.227-15.455-15.118-3.022-20.146-25.684-9.627-56.06 22.97-64.316 160.096 20.316 34.98 7.799-12.059 12.059h30.447l-12.389 17.968v8.062l5.086 2.846 1.479-2.135v-11.021l13.178-14.825 17.26 18.782 1.312 10.616 7.963-3.496 6.514-9.049 12.2-2.361 5.292-17.912 22.521-8.741 6.562-20.269 9.431 1.456 14.432 19.379-12.995 14.762v18.488l-15.347 13.915v19.105l-6.022 11.214v15.287l-29.28 36.133v11.164l15.367 23.263v14.364l-7.22 7.223-22.586-19.104v-12.359l-6.453-7.613-6.856 6.855-6.961-4.6-21.674 1.396v8.996l-39.9-.883-16.69 10.944zm-14.191-14.096 7.691 3.725v-15.26l21.315-13.977 35.274.777v-8.445l29.934-1.929 4.356 2.877 8.097-8.096 12.562 14.813v11.729l15.718 13.294 1.09-1.088v-9.721l-15.367-23.26v-15.42l29.278-36.136v-14.619l6.021-11.214v-20.342l15.349-13.915v-18.06l11.138-12.651-9.697-13.02-1.328-.205-5.809 17.941-22.427 8.704-5.507 18.639-13.549 2.622-6.041 8.396-17.583 7.719-2.125-17.213-10.984-11.953-6.758 7.603v10.579l-5.997 8.663-13.564-7.593v-13.895l6.512-9.444h-33.762l14.789-14.79-23.285-5.192-154.471-19.588-20.64 57.791 9.062 52.762 17.649 22.498 13.956 2.793 23.953 15.279 19.42 1.982h12.863l20.596 21.763 4.542-4.866 12.442 1.133z" fill="#48768c"/><g fill="#dba639"><path d="m149.836 185.924-3.931-3.931-3.724 3.724-4.596-4.597 8.32-8.32 8.527 8.528z"/><path d="m139.868 161.627-3.932-3.932-3.723 3.725-4.597-4.596 8.32-8.322 8.529 8.529z"/><path d="m139.868 136.084-3.932-3.932-3.723 3.724-4.597-4.597 8.32-8.32 8.529 8.529z"/><path d="m122.963 154.773-3.932-3.931-3.724 3.724-4.597-4.595 8.32-8.321 8.528 8.527z"/><path d="m122.963 129.854-3.932-3.932-3.724 3.724-4.596-4.596 8.32-8.32 8.527 8.527z"/><path d="m139.868 111.163-3.932-3.932-3.723 3.724-4.597-4.596 8.32-8.32 8.528 8.528z"/><path d="m139.868 86.243-3.932-3.932-3.723 3.724-4.597-4.595 8.32-8.323 8.529 8.531z"/><path d="m122.963 92.473-3.932-3.931-3.724 3.723-4.596-4.596 8.32-8.32 8.527 8.528z"/><path d="m106.68 98.703-3.932-3.932-3.724 3.725-4.597-4.596 8.32-8.321 8.529 8.527z"/><path d="m106.679 123.624-3.932-3.933-3.723 3.725-4.597-4.596 8.32-8.322 8.529 8.53z"/><path d="m107.303 73.783-3.933-3.932-3.724 3.724-4.595-4.597 8.319-8.32 8.529 8.529z"/><path d="m107.303 48.863-3.933-3.933-3.723 3.724-4.597-4.595 8.32-8.322 8.529 8.53z"/><path d="m90.398 55.092-3.932-3.931-3.726 3.724-4.595-4.596 8.321-8.32 8.528 8.527z"/><path d="m269.37 164.648-3.932-3.93-3.724 3.723-4.596-4.596 8.32-8.32 8.528 8.527z"/><path d="m286.274 170.879-3.93-3.932-3.724 3.725-4.598-4.596 8.322-8.322 8.528 8.529z"/><path d="m299.981 151.566-3.932-3.932-3.724 3.723-4.596-4.595 8.319-8.321 8.529 8.529z"/><path d="m313.688 132.253-3.932-3.932-3.724 3.724-4.596-4.597 8.32-8.319 8.528 8.527z"/><path d="m313.688 107.332-3.932-3.931-3.724 3.723-4.596-4.596 8.32-8.32 8.528 8.528z"/><path d="m107.303 28.847-3.933-3.933-3.723 3.724-4.597-4.595 8.32-8.322 8.529 8.53z"/><path d="m90.398 35.076-3.932-3.93-3.726 3.723-4.595-4.596 8.321-8.32 8.528 8.527z"/><path d="m66.665 179.099-6.361-1.338 9.204-34.483 19.787 2.071 8.467-4.516 3.059 5.734-10.224 5.453-15.935-1.667z"/><path d="m247.753 190.097h-15.241l-14.259-14.257h-31.762l-8.301-8.302h-17.424v-6.497h20.115l8.302 8.302h31.761l14.259 14.258h12.55z"/><path d="m230.823 115.11h-22.584l-40.073-40.073v-23.642l-6.604-6.603-20.86-.38-9.015-27.832 6.181-2.002 7.587 23.422 18.846.343 10.362 10.361v23.642l36.268 36.267h16.215l3.583-5.965-11.801-9.041v-11.447l-7.17-7.171 4.594-4.593 9.072 9.072v10.932l13.861 10.619z"/><path d="m265.02 209.903-20.695-14.507v-51.237l-18.589-18.59v-13.707h6.497v11.016l18.588 18.59v50.548l17.927 12.567z"/><path d="m263.175 146.062h-15.602v-6.497h12.91l17.779-17.778h13.851l-.541-50.226 6.496-.07.614 56.793h-17.729z"/></g></svg>