<?xml version="1.0" encoding="utf-8"?>
<!-- Generator: Adobe Illustrator 16.0.4, SVG Export Plug-In . SVG Version: 6.00 Build 0)  -->
<!DOCTYPE svg PUBLIC "-//W3C//DTD SVG 1.1//EN" "http://www.w3.org/Graphics/SVG/1.1/DTD/svg11.dtd">
<svg version="1.1" id="Layer_1" xmlns="http://www.w3.org/2000/svg" xmlns:xlink="http://www.w3.org/1999/xlink" x="0px" y="0px"
	 width="173px" height="231px" viewBox="0 0 173 231" enable-background="new 0 0 173 231" xml:space="preserve">
<g>
	<g>
		<path fill="#48768C" d="M85.772,190.941c-29.625,0-53.727-24.103-53.727-53.728V81.025c0-29.625,24.102-53.728,53.727-53.728
			c29.625,0,53.727,24.102,53.727,53.728v56.188C139.499,166.839,115.397,190.941,85.772,190.941z M85.772,33.797
			c-26.041,0-47.227,21.186-47.227,47.228v56.188c0,26.041,21.186,47.229,47.227,47.229c26.042,0,47.227-21.188,47.227-47.229
			V81.025C132.999,54.983,111.813,33.797,85.772,33.797z"/>
	</g>
	<g>
		<path fill="#48768C" d="M86.568,139.489c-9.067,0-15.648-3.75-15.648-8.917s6.581-8.917,15.648-8.917s15.648,3.75,15.648,8.917
			S95.636,139.489,86.568,139.489z M77.517,130.572c0.724,0.826,3.886,2.417,9.051,2.417c5.166,0,8.328-1.591,9.052-2.417
			c-0.725-0.826-3.887-2.417-9.052-2.417C81.403,128.155,78.241,129.746,77.517,130.572z"/>
	</g>
	<g>
		<path fill="#48768C" d="M58.529,63.153L32.698,96.215l-1.891,2.515c1.425-0.423,2.931-0.659,4.494-0.659v5.479l2.556-3.38
			l22.78-29.157l73.661,29.706l2.125,3.111v-5.757c1.518,0,2.979,0.227,4.368,0.626l-2.235-3.272L58.529,63.153z"/>
		<path fill="#48768C" d="M85.772,15.139c-36.329,0-65.885,29.556-65.885,65.886v29.508c0.856-4.009,3.232-7.45,6.5-9.695V81.025
			c0-32.746,26.64-59.386,59.385-59.386c32.745,0,59.386,26.64,59.386,59.386v19.691c3.165,2.111,5.509,5.339,6.5,9.119v-28.81
			C151.658,44.695,122.103,15.139,85.772,15.139z"/>
	</g>
	<g>
		<path fill="#48768C" d="M100.833,162.802c-3.691-3.692-8.6-5.727-13.82-5.727c-5.22,0-10.127,2.033-13.819,5.725l-4.597-4.596
			c4.919-4.919,11.459-7.629,18.416-7.629l0,0c6.957,0,13.497,2.71,18.416,7.63L100.833,162.802z"/>
	</g>
	<circle fill="#48768C" cx="64.197" cy="105.655" r="4.483"/>
	<circle fill="#48768C" cx="108.829" cy="105.655" r="4.483"/>
	<g>
		<path fill="#48768C" d="M136.424,132.859h-3.25V94.822h3.25c10.486,0,19.019,8.53,19.019,19.019S146.91,132.859,136.424,132.859z
			 M139.674,101.75v24.183c5.332-1.436,9.269-6.312,9.269-12.092C148.942,108.062,145.006,103.185,139.674,101.75z"/>
	</g>
	<g>
		<path fill="#48768C" d="M38.551,132.859h-3.25c-10.486,0-19.018-8.532-19.018-19.021c0-10.486,8.531-19.018,19.018-19.018h3.25
			V132.859z M32.051,101.75c-5.332,1.435-9.268,6.312-9.268,12.091s3.936,10.656,9.268,12.092V101.75z"/>
	</g>
	<g>
		<rect x="25.287" y="78.006" fill="#48768C" width="122.474" height="6.5"/>
	</g>
</g>
</svg>
