<svg enable-background="new 0 0 239 105.237" height="105.237" viewBox="0 0 239 105.237" width="239" xmlns="http://www.w3.org/2000/svg"><g fill="#48768c"><path d="m112.538 95.2h-45.597c-9.315 0-16.895-7.579-16.895-16.894v-12.474c0-11.27 9.521-20.792 20.792-20.792h38.802v6.5h-38.801c-7.613 0-14.292 6.678-14.292 14.292v12.474c0 5.731 4.663 10.394 10.395 10.394h45.597c3.066 0 6.144-.033 9.187-.1-.085-2.863.259-6.035.989-8.532.948-3.245 2.545-5.979 4.088-8.623 2.209-3.785 4.296-7.359 4.296-12.208h6.5c0 6.607-2.753 11.324-5.182 15.485-1.408 2.412-2.738 4.69-3.464 7.17-.775 2.653-.975 6.764-.443 9.163l.849 3.832-3.923.119c-4.242.128-8.581.194-12.898.194z"/><path d="m89.24 37.16h-6.5v-3.261c0-4.627-3.764-8.392-8.391-8.392-4.628 0-8.393 3.765-8.393 8.392h-6.5c0-8.211 6.681-14.892 14.893-14.892 8.211 0 14.891 6.68 14.891 14.892z"/><path d="m89.139 34.822h-6.5v-12.759c0-7.863 6.422-14.259 14.316-14.259 7.896 0 14.318 6.396 14.318 14.259h-6.5c0-4.278-3.507-7.759-7.818-7.759-4.31 0-7.816 3.481-7.816 7.759z"/><path d="m155.5 95.2h-56.286l-.557-2.559c-.067-.311-1.663-7.72-2.22-16.554-.778-12.368.872-21.177 4.906-26.183 2.563-3.182 6.135-4.863 10.326-4.863 15.201 0 24.284 10.148 32.299 19.102 6.29 7.026 11.722 13.095 18.781 13.095 3.042 0 6.093-1.553 6.159-3.136.311-7.464 5.118-7.842 6.079-7.842 1.675 0 3.362.766 4.75 2.157 1.948 1.953 3.062 4.805 3.056 7.827-.015 7.079-3.581 18.956-27.293 18.956zm-50.997-6.5h50.997c13.779 0 20.775-4.195 20.794-12.47.003-1.234-.395-2.194-.804-2.796-.039.254-.071.564-.087.939-.245 5.862-6.626 9.365-12.653 9.365-9.965 0-16.909-7.758-23.624-15.26-7.454-8.327-15.161-16.937-27.456-16.937-2.249 0-3.922.775-5.264 2.44-5.552 6.885-3.58 25.482-1.903 34.719z"/><path d="m176.979 72.961h-13.653c-6.387 0-11.583-5.195-11.583-11.581v-3.25h13.654c6.387 0 11.582 5.195 11.582 11.582zm-17.557-8.331c.933 1.118 2.337 1.831 3.904 1.831h5.975c-.933-1.119-2.336-1.832-3.903-1.832h-5.976z"/><path d="m171.125 72.961v-3.25c0-6.386 5.241-11.582 11.684-11.582h13.781v3.25c0 6.386-5.241 11.581-11.685 11.581zm11.684-8.331c-1.599 0-3.03.713-3.981 1.832h6.078c1.599 0 3.03-.713 3.982-1.831h-6.079z"/><circle cx="75.75" cy="69.654" r="3.917"/><path d="m76.667 84.23h-22.134v-6.5h22.134c6.064 0 7.832-6.721 7.849-6.789l6.303 1.592c-1.022 4.046-5.295 11.697-14.152 11.697z"/><path d="m18.788 101.694c-6.261 0-11.354-5.093-11.354-11.353h6.5c0 2.676 2.178 4.853 4.854 4.853s4.854-2.177 4.854-4.853h6.5c0 6.26-5.093 11.353-11.354 11.353z"/><path d="m34.995 101.694c-6.261 0-11.354-5.093-11.354-11.353h6.5c0 2.676 2.178 4.853 4.854 4.853s4.854-2.177 4.854-4.853h6.5c0 6.26-5.093 11.353-11.354 11.353z"/><path d="m193.34 81.039v-6.5c2.676 0 4.854-2.177 4.854-4.853h6.5c-.001 6.26-5.093 11.353-11.354 11.353z"/><path d="m209.275 81.039c-6.261 0-11.354-5.093-11.354-11.353h6.5c0 2.676 2.178 4.853 4.854 4.853s4.854-2.177 4.854-4.853h6.5c0 6.26-5.093 11.353-11.354 11.353z"/><path d="m225.482 81.039c-6.261 0-11.354-5.093-11.354-11.353h6.5c0 2.676 2.178 4.853 4.854 4.853s4.854-2.177 4.854-4.853h6.5c0 6.26-5.093 11.353-11.354 11.353z"/><path d="m51.202 101.694c-6.261 0-11.354-5.093-11.354-11.353h6.5c0 2.676 2.178 4.853 4.854 4.853z"/><path d="m69.349 60.487h13.54v6.5h-13.54z"/></g></svg>