<svg enable-background="new 0 0 239 105.237" height="105.237" viewBox="0 0 239 105.237" width="239" xmlns="http://www.w3.org/2000/svg"><g fill="#48768c"><path d="m192.429 89.114h-140.412v-39.509h173.143l-4.902 26.97-6.395-1.162 3.51-19.308h-158.856v26.509h133.912z"/><path d="m196.684 30.198h6.5v22.657h-6.5z"/><path d="m197.934 39.615h11v6.5h-11z"/><path d="m117.084 39.591-8.952-29.888 18.958-5.514 9.967 34.268zm-.845-25.477 5.599 18.697 6.697-.381-5.871-20.185z"/><path d="m118.127 13.237h6.5v13.218h-6.5z" transform="matrix(.2792 .9602 -.9602 .2792 106.5493 -102.2455)"/><path d="m99.06 36.351-7.01-24.106-6.426 1.869 5.889 19.664-6.227 1.866-7.769-25.942 18.959-5.514 8.826 30.347z"/><path d="m87.511 13.237h6.5v13.218h-6.5z" transform="matrix(.2792 .9602 -.9602 .2792 84.4807 -72.8474)"/><path d="m183.611 56.105h-121.927v-23.5h115.016zm-115.427-6.5h106.74l-3.088-10.5h-103.652z"/><path d="m75.684 42.855h6.5v10h-6.5z"/><path d="m85.684 42.855h6.5v10h-6.5z"/><path d="m95.684 36.855h6.5v16h-6.5z"/><path d="m105.684 36.855h6.5v16h-6.5z"/><path d="m115.684 36.855h6.5v16h-6.5z"/><path d="m125.684 36.855h6.5v16h-6.5z"/><path d="m135.684 36.855h6.5v16h-6.5z"/><path d="m145.684 36.855h6.5v16h-6.5z"/><path d="m155.684 42.855h6.5v10h-6.5z"/><path d="m55.267 59.281h164.269v6.5h-164.269z"/><path d="m15.938 78.239c-6.261 0-11.354-5.093-11.354-11.354h6.5c0 2.676 2.178 4.854 4.854 4.854s4.854-2.177 4.854-4.854h6.5c-.001 6.261-5.094 11.354-11.354 11.354z"/><path d="m32.145 78.239c-6.261 0-11.354-5.093-11.354-11.354h6.5c0 2.676 2.178 4.854 4.854 4.854s4.854-2.177 4.854-4.854h6.5c-.001 6.261-5.094 11.354-11.354 11.354z"/><path d="m48.352 78.239c-6.261 0-11.354-5.093-11.354-11.354h6.5c0 2.676 2.178 4.854 4.854 4.854z"/><path d="m224.69 89.114c-6.261 0-11.354-5.093-11.354-11.354h6.5c0 2.676 2.178 4.854 4.854 4.854s4.854-2.177 4.854-4.854h6.5c0 6.261-5.093 11.354-11.354 11.354z"/><path d="m208.483 89.114c-6.261 0-11.354-5.093-11.354-11.354h6.5c0 2.676 2.178 4.854 4.854 4.854s4.854-2.177 4.854-4.854h6.5c0 6.261-5.093 11.354-11.354 11.354z"/><path d="m192.276 89.114v-6.5c2.676 0 4.854-2.177 4.854-4.854h6.5c0 6.261-5.093 11.354-11.354 11.354z"/></g></svg>