<?xml version="1.0" encoding="utf-8"?>
<!-- Generator: Adobe Illustrator 16.0.4, SVG Export Plug-In . SVG Version: 6.00 Build 0)  -->
<!DOCTYPE svg PUBLIC "-//W3C//DTD SVG 1.1//EN" "http://www.w3.org/Graphics/SVG/1.1/DTD/svg11.dtd">
<svg version="1.1" id="Layer_1" xmlns="http://www.w3.org/2000/svg" xmlns:xlink="http://www.w3.org/1999/xlink" x="0px" y="0px"
	 width="239px" height="105.237px" viewBox="0 0 239 105.237" enable-background="new 0 0 239 105.237" xml:space="preserve">
<g>
	<polygon fill="#48768C" points="192.429,89.114 52.017,89.114 52.017,49.605 225.16,49.605 220.258,76.575 213.863,75.413 
		217.373,56.105 58.517,56.105 58.517,82.614 192.429,82.614 	"/>
</g>
<g>
	<rect x="196.684" y="30.198" fill="#48768C" width="6.5" height="22.657"/>
</g>
<g>
	<rect x="197.934" y="39.615" fill="#48768C" width="11" height="6.5"/>
</g>
<g>
	<path fill="#48768C" d="M117.084,39.591l-8.952-29.888l18.958-5.514l9.967,34.268L117.084,39.591z M116.239,14.114l5.599,18.697
		l6.697-0.381l-5.871-20.185L116.239,14.114z"/>
</g>
<g>
	
		<rect x="118.127" y="13.237" transform="matrix(0.2792 0.9602 -0.9602 0.2792 106.5493 -102.2455)" fill="#48768C" width="6.5" height="13.218"/>
</g>
<g>
	<polygon fill="#48768C" points="99.06,36.351 92.05,12.245 85.624,14.114 91.513,33.778 85.286,35.644 77.517,9.702 96.476,4.188 
		105.302,34.535 	"/>
</g>
<g>
	
		<rect x="87.511" y="13.237" transform="matrix(0.2792 0.9602 -0.9602 0.2792 84.4807 -72.8474)" fill="#48768C" width="6.5" height="13.218"/>
</g>
<g>
	<path fill="#48768C" d="M183.611,56.105H61.684v-23.5h115.016L183.611,56.105z M68.184,49.605h106.74l-3.088-10.5H68.184V49.605z"
		/>
</g>
<g>
	<rect x="75.684" y="42.855" fill="#48768C" width="6.5" height="10"/>
</g>
<g>
	<rect x="85.684" y="42.855" fill="#48768C" width="6.5" height="10"/>
</g>
<g>
	<rect x="95.684" y="36.855" fill="#48768C" width="6.5" height="16"/>
</g>
<g>
	<rect x="105.684" y="36.855" fill="#48768C" width="6.5" height="16"/>
</g>
<g>
	<rect x="115.684" y="36.855" fill="#48768C" width="6.5" height="16"/>
</g>
<g>
	<rect x="125.684" y="36.855" fill="#48768C" width="6.5" height="16"/>
</g>
<g>
	<rect x="135.684" y="36.855" fill="#48768C" width="6.5" height="16"/>
</g>
<g>
	<rect x="145.684" y="36.855" fill="#48768C" width="6.5" height="16"/>
</g>
<g>
	<rect x="155.684" y="42.855" fill="#48768C" width="6.5" height="10"/>
</g>
<g>
	<rect x="55.267" y="59.281" fill="#48768C" width="164.269" height="6.5"/>
</g>
<g>
	<path fill="#48768C" d="M15.938,78.239c-6.261,0-11.354-5.093-11.354-11.354h6.5c0,2.676,2.178,4.854,4.854,4.854
		s4.854-2.177,4.854-4.854h6.5C27.291,73.146,22.198,78.239,15.938,78.239z"/>
</g>
<g>
	<path fill="#48768C" d="M32.145,78.239c-6.261,0-11.354-5.093-11.354-11.354h6.5c0,2.676,2.178,4.854,4.854,4.854
		s4.854-2.177,4.854-4.854h6.5C43.498,73.146,38.405,78.239,32.145,78.239z"/>
</g>
<g>
	<path fill="#48768C" d="M48.352,78.239c-6.261,0-11.354-5.093-11.354-11.354h6.5c0,2.676,2.178,4.854,4.854,4.854V78.239z"/>
</g>
<g>
	<path fill="#48768C" d="M224.69,89.114c-6.261,0-11.354-5.093-11.354-11.354h6.5c0,2.676,2.178,4.854,4.854,4.854
		s4.854-2.177,4.854-4.854h6.5C236.044,84.021,230.951,89.114,224.69,89.114z"/>
</g>
<g>
	<path fill="#48768C" d="M208.483,89.114c-6.261,0-11.354-5.093-11.354-11.354h6.5c0,2.676,2.178,4.854,4.854,4.854
		s4.854-2.177,4.854-4.854h6.5C219.837,84.021,214.744,89.114,208.483,89.114z"/>
</g>
<g>
	<path fill="#48768C" d="M192.276,89.114v-6.5c2.676,0,4.854-2.177,4.854-4.854h6.5C203.63,84.021,198.537,89.114,192.276,89.114z"
		/>
</g>
</svg>
