<?xml version="1.0" encoding="utf-8"?>
<!-- Generator: Adobe Illustrator 16.0.4, SVG Export Plug-In . SVG Version: 6.00 Build 0)  -->
<!DOCTYPE svg PUBLIC "-//W3C//DTD SVG 1.1//EN" "http://www.w3.org/Graphics/SVG/1.1/DTD/svg11.dtd">
<svg version="1.1" id="Layer_1" xmlns="http://www.w3.org/2000/svg" xmlns:xlink="http://www.w3.org/1999/xlink" x="0px" y="0px"
	 width="18px" height="18px" viewBox="-1.5 -1.5 18 18" enable-background="new -1.5 -1.5 18 18" xml:space="preserve">
<path fill="#F2EDE7" d="M7.5-1.515c-4.272,0-7.732,3.461-7.732,7.732c0,1.551,0.432,3.012,1.246,4.205
	c1.16,1.703,6.488,6.093,6.488,6.093s5.073-3.979,6.408-5.976c0.829-1.234,1.323-2.719,1.323-4.319
	C15.232,1.946,11.771-1.515,7.5-1.515z M7.5,9.606c-1.967,0-3.559-1.593-3.559-3.558c0-1.964,1.594-3.557,3.559-3.557
	c1.964,0,3.557,1.593,3.557,3.557C11.059,8.014,9.464,9.606,7.5,9.606z"/>
</svg>
