<svg enable-background="new 0 0 90 106" height="106" viewBox="0 0 90 106" width="90" xmlns="http://www.w3.org/2000/svg"><path d="m88.501 45.79c0-24.025-19.478-43.502-43.501-43.502-24.025 0-43.501 19.477-43.501 43.502 0 8.729 2.435 16.938 7.004 23.647 6.525 9.59 36.497 34.275 36.497 34.275s28.541-22.387 36.057-33.614c4.66-6.962 7.444-15.298 7.444-24.308z" fill="#f2ede7"/><path d="m80.5 46.116c0-19.606-15.896-35.5-35.5-35.5-19.606 0-35.5 15.894-35.5 35.5 0 7.123 1.987 13.823 5.716 19.299 5.325 7.826 29.784 27.969 29.784 27.969s23.291-18.27 29.424-27.432c3.805-5.681 6.076-12.482 6.076-19.836z" fill="#83d6ff"/><path d="m50.332 63.003c-8.314 0-10.699-8.794-8.209-17.747l1.96.9c-1.324 6.304 1.43 8.795 4.396 8.795 4.503 0 7.311-5.881 7.578-12.874.21-6.04-1.592-8.741-4.347-8.741-2.542 0-5.404 2.33-6.303 6.674l-4.981-2.437c2.172-8.317 6.94-12.185 12.663-12.185 6.145 0 13.402 4.398 12.66 17.801-.74 12.715-7.944 19.814-15.417 19.814zm-11.494 7.575-8.264-2.435 7.151-31.471c.423-1.853.265-3.761-1.324-3.761-1.907 0-2.754 2.702-1.801 8.212l-7.1 1.377c-4.821-9.271.212-17.112 8.477-16.476 6.041.477 7.523 5.033 8.636 8.848.158.53 1.166 4.026 1.005 4.079z" fill="#48768c"/></svg>