<?xml version="1.0" encoding="utf-8"?>
<!-- Generator: Adobe Illustrator 16.0.4, SVG Export Plug-In . SVG Version: 6.00 Build 0)  -->
<!DOCTYPE svg PUBLIC "-//W3C//DTD SVG 1.1//EN" "http://www.w3.org/Graphics/SVG/1.1/DTD/svg11.dtd">
<svg version="1.1" id="Layer_1" xmlns="http://www.w3.org/2000/svg" xmlns:xlink="http://www.w3.org/1999/xlink" x="0px" y="0px"
	 width="700px" height="480px" viewBox="66.09 0 700 480" enable-background="new 66.09 0 700 480" xml:space="preserve">
<g>
	<g>
		<polygon fill="#C2EBFF" stroke="#FFFEFC" stroke-width="6.5" stroke-miterlimit="10" points="127.184,38.062 93.757,117.804 
			84.896,156.466 96.173,222.26 103.02,261.982 139.668,308.7 167.859,314.338 214.577,344.141 254.045,348.168 254.045,342.53 
			276.599,348.168 319.287,393.274 330.564,381.192 348.284,382.803 377.281,435.562 403.057,448.047 403.057,411.8 
			439.907,387.636 512.803,389.247 512.803,372.332 562.842,369.11 573.816,376.359 588.314,361.861 606.751,383.609 
			606.751,406.967 643.892,438.381 651.947,430.325 651.947,406.967 622.145,361.861 622.145,336.084 678.931,266.009 
			678.931,237.012 690.609,215.264 690.609,177.006 720.371,150.021 720.371,114.581 743.771,88 720.371,56.587 709.94,54.976 
			697.944,92.027 654.363,108.942 643.892,144.383 618.922,149.216 606.751,166.131 581.98,177.006 578.648,150.021 
			551.263,120.219 531.932,141.967 531.932,162.909 524.682,173.38 512.803,165.326 512.803,141.967 531.127,115.386 
			462.661,115.386 488.694,89.354 432.054,76.724 		"/>
		<g>
			<polyline fill="none" stroke="#FFFEFC" stroke-width="6.5" stroke-miterlimit="10" points="330.161,361.861 318.079,349.779 
				306.4,361.458 			"/>
			<polyline fill="none" stroke="#FFFEFC" stroke-width="6.5" stroke-miterlimit="10" points="309.621,340.113 297.539,328.031 
				285.861,339.71 			"/>
			<polyline fill="none" stroke="#FFFEFC" stroke-width="6.5" stroke-miterlimit="10" points="310.83,314.741 298.748,302.659 
				287.069,314.338 			"/>
			<polyline fill="none" stroke="#FFFEFC" stroke-width="6.5" stroke-miterlimit="10" points="310.83,289.369 298.748,277.287 
				287.069,288.966 			"/>
			<polyline fill="none" stroke="#FFFEFC" stroke-width="6.5" stroke-miterlimit="10" points="310.83,265.205 298.748,253.123 
				287.069,264.802 			"/>
			<polyline fill="none" stroke="#FFFEFC" stroke-width="6.5" stroke-miterlimit="10" points="310.83,241.041 298.748,228.958 
				287.069,240.639 			"/>
			<polyline fill="none" stroke="#FFFEFC" stroke-width="6.5" stroke-miterlimit="10" points="284.249,301.451 272.167,289.369 
				260.488,301.048 			"/>
			<polyline fill="none" stroke="#FFFEFC" stroke-width="6.5" stroke-miterlimit="10" points="284.249,277.287 272.167,265.205 
				260.488,276.884 			"/>
			<polyline fill="none" stroke="#FFFEFC" stroke-width="6.5" stroke-miterlimit="10" points="284.249,253.123 272.167,241.041 
				260.488,252.721 			"/>
			<polyline fill="none" stroke="#FFFEFC" stroke-width="6.5" stroke-miterlimit="10" points="310.83,216.876 298.748,204.794 
				287.069,216.474 			"/>
			<polyline fill="none" stroke="#FFFEFC" stroke-width="6.5" stroke-miterlimit="10" points="310.83,192.712 298.748,180.63 
				287.069,192.31 			"/>
			<polyline fill="none" stroke="#FFFEFC" stroke-width="6.5" stroke-miterlimit="10" points="310.83,168.548 298.748,156.466 
				287.069,168.146 			"/>
			<polyline fill="none" stroke="#FFFEFC" stroke-width="6.5" stroke-miterlimit="10" points="284.249,204.794 272.167,192.712 
				260.488,204.392 			"/>
			<polyline fill="none" stroke="#FFFEFC" stroke-width="6.5" stroke-miterlimit="10" points="284.249,180.63 272.167,168.548 
				260.488,180.228 			"/>
			<polyline fill="none" stroke="#FFFEFC" stroke-width="6.5" stroke-miterlimit="10" points="258.877,216.876 246.796,204.794 
				235.116,216.474 			"/>
			<polyline fill="none" stroke="#FFFEFC" stroke-width="6.5" stroke-miterlimit="10" points="258.877,192.712 246.796,180.63 
				235.116,192.31 			"/>
			<polyline fill="none" stroke="#FFFEFC" stroke-width="6.5" stroke-miterlimit="10" points="258.877,241.041 246.796,228.958 
				235.116,240.639 			"/>
			<polyline fill="none" stroke="#FFFEFC" stroke-width="6.5" stroke-miterlimit="10" points="260.085,168.548 248.004,156.466 
				236.324,168.146 			"/>
			<polyline fill="none" stroke="#FFFEFC" stroke-width="6.5" stroke-miterlimit="10" points="260.085,144.384 248.004,132.302 
				236.324,143.981 			"/>
			<polyline fill="none" stroke="#FFFEFC" stroke-width="6.5" stroke-miterlimit="10" points="260.085,120.22 248.004,108.138 
				236.324,119.817 			"/>
			<polyline fill="none" stroke="#FFFEFC" stroke-width="6.5" stroke-miterlimit="10" points="260.085,96.056 248.004,83.974 
				236.324,95.653 			"/>
			<polyline fill="none" stroke="#FFFEFC" stroke-width="6.5" stroke-miterlimit="10" points="233.506,108.138 221.424,96.056 
				209.744,107.735 			"/>
			<polyline fill="none" stroke="#FFFEFC" stroke-width="6.5" stroke-miterlimit="10" points="233.506,83.974 221.424,71.892 
				209.744,83.571 			"/>
			<polyline fill="none" stroke="#FFFEFC" stroke-width="6.5" stroke-miterlimit="10" points="568.178,329.24 556.096,317.158 
				544.417,328.836 			"/>
			<polyline fill="none" stroke="#FFFEFC" stroke-width="6.5" stroke-miterlimit="10" points="568.178,305.076 556.096,292.993 
				544.417,304.672 			"/>
			<polyline fill="none" stroke="#FFFEFC" stroke-width="6.5" stroke-miterlimit="10" points="594.758,317.158 582.676,305.076 
				570.997,316.754 			"/>
			<polyline fill="none" stroke="#FFFEFC" stroke-width="6.5" stroke-miterlimit="10" points="594.758,292.993 582.676,280.911 
				570.997,292.59 			"/>
			<polyline fill="none" stroke="#FFFEFC" stroke-width="6.5" stroke-miterlimit="10" points="621.338,279.703 609.256,267.621 
				597.578,279.3 			"/>
			<polyline fill="none" stroke="#FFFEFC" stroke-width="6.5" stroke-miterlimit="10" points="621.338,255.539 609.256,243.457 
				597.578,255.137 			"/>
			<polyline fill="none" stroke="#FFFEFC" stroke-width="6.5" stroke-miterlimit="10" points="647.919,242.249 635.837,230.167 
				624.158,241.846 			"/>
			<polyline fill="none" stroke="#FFFEFC" stroke-width="6.5" stroke-miterlimit="10" points="647.919,218.085 635.837,206.003 
				624.158,217.682 			"/>
			<polyline fill="none" stroke="#FFFEFC" stroke-width="6.5" stroke-miterlimit="10" points="647.919,193.921 635.837,181.839 
				624.158,193.518 			"/>
		</g>
		<polyline fill="none" stroke="#83D6FF" stroke-width="6.5" stroke-miterlimit="10" points="512.803,372.332 492.464,372.332 
			492.464,323.199 504.799,310.865 504.799,265.205 470.238,230.645 470.238,210.835 492.962,188.113 468.798,163.948 
			468.798,150.828 442.068,124.1 		"/>
		<polyline fill="none" stroke="#83D6FF" stroke-width="6.5" stroke-miterlimit="10" points="609.458,186.671 609.458,210.835 
			586.503,233.791 556.297,233.791 527.604,262.484 504.799,265.205 		"/>
		<polyline fill="none" stroke="#83D6FF" stroke-width="6.5" stroke-miterlimit="10" points="311.535,90.015 349.091,90.015 
			365.199,102.097 365.199,147.606 378.893,161.299 378.893,180.63 402.251,180.63 432.054,219.393 469.912,219.393 		"/>
		<polyline fill="none" stroke="#83D6FF" stroke-width="6.5" stroke-miterlimit="10" points="233.506,249.498 215.383,259.164 
			180.746,255.539 167.859,314.338 		"/>
		<polyline fill="none" stroke="#83D6FF" stroke-width="6.5" stroke-miterlimit="10" points="492.464,358.639 468.254,358.639 
			442.068,323.199 390.17,319.979 379.697,308.7 345.867,308.7 		"/>
	</g>
</g>
</svg>
