<svg enable-background="new 0 0 18 18" height="18" viewBox="0 0 18 18" width="18" xmlns="http://www.w3.org/2000/svg"><path d="m17.239 5.629c-1.008.042-1.904.239-2.709-.674-.678-.779-1.621-1.335-2.735-1.418-.878-.063-1.168.121-1.178.978-.036 2.643-.028.271-.03 2.909 0 .144.023.351.12.419.725.537.593 1.3.59 2.04-.011 2.2-.009 4.122-.016 6.327-.008 1.028-.314 1.478-1.321 1.664-.563.105-1.18.104-1.746-.004-.956-.176-1.327-.704-1.325-1.671.001-2.409-.016-4.534.033-6.942.006-.445.298-.877.453-1.314.087-.255.234-.511.24-.766.023-2.127.031.754.016-1.374-.014-1.762-1.145-2.394-2.666-1.48-.885.532-1.825.404-2.76.333-.158-.01-.412-.334-.419-.524-.037-1.176-.046-2.358.009-3.532.006-.204.368-.564.555-.553.856.038 1.724.118 2.553.312.608.141 1.151.43 1.711-.109.12-.116.381-.125.577-.125 1.381-.007 2.774-.089 4.147.035.78.073 1.588.395 2.272.792 1.368.797 3.103 3.116 3.629 4.677z" fill="#f2ede7"/></svg>