<svg enable-background="new 0 0 173 231" height="231" viewBox="0 0 173 231" width="173" xmlns="http://www.w3.org/2000/svg"><g fill="#48768c"><path d="m108.828 189.846h-44.632l-38.105-52.979v-55.226c0-33.315 27.105-60.42 60.421-60.42 33.315 0 60.419 27.104 60.419 60.42v55.227zm-41.3-6.5h37.968l34.936-48.573v-53.132c0-29.731-24.188-53.92-53.919-53.92-29.732 0-53.921 24.188-53.921 53.92v53.131z"/><circle cx="64.421" cy="94.685" r="4.438"/><circle cx="109.225" cy="94.685" r="4.437"/><path d="m97.392 159.775c-5.828-5.812-15.312-5.828-21.14-.033l-4.584-4.609c8.357-8.312 21.955-8.294 30.313.039z"/><path d="m101.944 121.052h-30.247l15.138-33.15zm-20.133-6.5h10.028l-5.01-10.99z"/><path d="m86.823 220.755c-33.16 0-60.137-20.904-60.137-46.599s26.978-46.601 60.137-46.601c33.161 0 60.138 20.905 60.138 46.601 0 25.695-26.978 46.599-60.138 46.599zm0-86.699c-29.576 0-53.637 17.989-53.637 40.101 0 22.11 24.062 40.099 53.637 40.099 29.577 0 53.638-17.988 53.638-40.099 0-22.112-24.062-40.101-53.638-40.101z"/><path d="m152.941 97.159c2.828 1.736 5.1 4.277 6.5 7.312v-22.66c0-18.418-6.906-35.914-19.474-49.415v-23.204h-51.072c-.475-.013-.947-.009-1.424-.004l-.648.004c-19.226 0-37.36 7.468-51.062 21.029-.385.381-.766.766-1.142 1.156l4.678 4.513c.342-.355.688-.705 1.037-1.05 12.477-12.348 28.986-19.148 46.489-19.148l.709-.004c.403-.004.802-.009 1.204.002l44.731.002v19.312l.911.944c11.97 12.408 18.562 28.696 18.562 45.863v15.348z"/><path d="m20.704 96.908v-15.097c0-9.501 1.981-18.676 5.889-27.269.205-.45.414-.897.624-1.334.154-.317.309-.633.467-.947l-5.807-2.921c-.173.344-.342.688-.514 1.042-.233.485-.462.975-.687 1.468-4.295 9.445-6.473 19.525-6.473 29.961v21.804c1.492-2.803 3.754-5.127 6.501-6.707z"/><path d="m146.049 97.913h-17.814v-16.272c0-23.005-18.716-41.722-41.722-41.722s-41.722 18.716-41.722 41.722v16.272h-15.707v-6.5h9.207v-9.772c0-26.589 21.632-48.222 48.222-48.222s48.222 21.632 48.222 48.222v9.772h11.314z"/><path d="m144.149 131.611h-3.25v-40.198h3.25c11.082 0 20.098 9.016 20.098 20.098 0 11.084-9.016 20.1-20.098 20.1zm3.25-33.305v26.413c5.934-1.461 10.348-6.829 10.348-13.208 0-6.378-4.414-11.745-10.348-13.205z"/><path d="m32.334 131.611h-3.25c-11.082 0-20.098-9.017-20.098-20.101 0-11.082 9.016-20.098 20.098-20.098h3.25zm-6.5-33.305c-5.934 1.46-10.348 6.827-10.348 13.205 0 6.379 4.414 11.747 10.348 13.208z"/><path d="m87.55 173.688c-15.772 0-28.128-7.984-28.128-18.177s12.355-18.178 28.128-18.178 28.129 7.984 28.129 18.178c0 10.192-12.356 18.177-28.129 18.177zm0-29.855c-11.724 0-21.628 5.348-21.628 11.678 0 6.329 9.904 11.677 21.628 11.677s21.629-5.348 21.629-11.677c0-6.33-9.906-11.678-21.629-11.678z"/><path d="m26.979 53.558-5.493-3.476c3.956-6.253 11.646-7.993 17.889-4.046l-3.474 5.494c-3.213-2.03-6.881-1.197-8.922 2.028z"/><path d="m35.374 49.416c-5.336-5.165-5.473-13.076-.318-18.4l4.67 4.521c-2.619 2.706-2.548 6.58.169 9.21z"/></g></svg>