<?xml version="1.0" encoding="utf-8"?>
<!-- Generator: Adobe Illustrator 16.0.4, SVG Export Plug-In . SVG Version: 6.00 Build 0)  -->
<!DOCTYPE svg PUBLIC "-//W3C//DTD SVG 1.1//EN" "http://www.w3.org/Graphics/SVG/1.1/DTD/svg11.dtd">
<svg version="1.1" id="Layer_1" xmlns="http://www.w3.org/2000/svg" xmlns:xlink="http://www.w3.org/1999/xlink" x="0px" y="0px"
	 width="400px" height="250px" viewBox="0 0 400 250" enable-background="new 0 0 400 250" xml:space="preserve">
<g>
	<g>
		<path fill="#48768C" d="M192.972,241.26l-18.89-9.15l-14.62-26.598l-5.831-0.529l-7.09,7.594l-23.426-24.754l-10.561-0.017
			l-21.12-2.155l-24.227-15.455l-15.118-3.022L31.943,141.49L22.316,85.43l22.97-64.316L205.382,41.43l34.98,7.799l-12.059,12.059
			h30.447l-12.389,17.968v8.062l5.086,2.846l1.479-2.135V77.008l13.178-14.825l17.26,18.782l1.312,10.616l7.963-3.496l6.514-9.049
			l12.2-2.361l5.292-17.912l22.521-8.741l6.562-20.269l9.431,1.456l14.432,19.379L356.596,65.35v18.488l-15.347,13.915v19.105
			l-6.022,11.214v15.287l-29.28,36.133v11.164l15.367,23.263v14.364l-7.22,7.223l-22.586-19.104v-12.359l-6.453-7.613l-6.856,6.855
			l-6.961-4.6l-21.674,1.396v8.996l-39.9-0.883l-16.69,10.944L192.972,241.26L192.972,241.26z M178.781,227.164l7.691,3.725v-15.26
			l21.315-13.977l35.274,0.777v-8.445l29.934-1.929l4.356,2.877l8.097-8.096l12.562,14.813v11.729l15.718,13.294l1.09-1.088v-9.721
			l-15.367-23.26v-15.42l29.278-36.136v-14.619l6.021-11.214V94.872l15.349-13.915v-18.06l11.138-12.651l-9.697-13.02l-1.328-0.205
			l-5.809,17.941l-22.427,8.704l-5.507,18.639l-13.549,2.622l-6.041,8.396l-17.583,7.719l-2.125-17.213l-10.984-11.953l-6.758,7.603
			v10.579l-5.997,8.663l-13.564-7.593V77.233l6.512-9.444h-33.762l14.789-14.79l-23.285-5.192L49.651,28.219L29.011,86.01
			l9.062,52.762l17.649,22.498l13.956,2.793l23.953,15.279l19.42,1.982h12.863l20.596,21.763l4.542-4.866l12.442,1.133
			L178.781,227.164z"/>
	</g>
	<g>
		<g>
			<polygon fill="#DBA639" points="149.836,185.924 145.905,181.993 142.181,185.717 137.585,181.12 145.905,172.8 154.432,181.328 
							"/>
		</g>
		<g>
			<polygon fill="#DBA639" points="139.868,161.627 135.936,157.695 132.213,161.42 127.616,156.824 135.936,148.502 
				144.465,157.031 			"/>
		</g>
		<g>
			<polygon fill="#DBA639" points="139.868,136.084 135.936,132.152 132.213,135.876 127.616,131.279 135.936,122.959 
				144.465,131.488 			"/>
		</g>
		<g>
			<polygon fill="#DBA639" points="122.963,154.773 119.031,150.842 115.307,154.566 110.71,149.971 119.03,141.65 127.558,150.177 
							"/>
		</g>
		<g>
			<polygon fill="#DBA639" points="122.963,129.854 119.031,125.922 115.307,129.646 110.711,125.05 119.031,116.73 
				127.558,125.257 			"/>
		</g>
		<g>
			<polygon fill="#DBA639" points="139.868,111.163 135.936,107.231 132.213,110.955 127.616,106.359 135.936,98.039 
				144.464,106.567 			"/>
		</g>
		<g>
			<polygon fill="#DBA639" points="139.868,86.243 135.936,82.311 132.213,86.035 127.616,81.44 135.936,73.117 144.465,81.648 			
				"/>
		</g>
		<g>
			<polygon fill="#DBA639" points="122.963,92.473 119.031,88.542 115.307,92.265 110.711,87.669 119.031,79.349 127.558,87.877 			
				"/>
		</g>
		<g>
			<polygon fill="#DBA639" points="106.68,98.703 102.748,94.771 99.024,98.496 94.427,93.9 102.747,85.579 111.276,94.106 			"/>
		</g>
		<g>
			<polygon fill="#DBA639" points="106.679,123.624 102.747,119.691 99.024,123.416 94.427,118.82 102.747,110.498 111.276,119.028 
							"/>
		</g>
		<g>
			<polygon fill="#DBA639" points="107.303,73.783 103.37,69.851 99.646,73.575 95.051,68.978 103.37,60.658 111.899,69.187 			"/>
		</g>
		<g>
			<polygon fill="#DBA639" points="107.303,48.863 103.37,44.93 99.647,48.654 95.05,44.059 103.37,35.737 111.899,44.267 			"/>
		</g>
		<g>
			<polygon fill="#DBA639" points="90.398,55.092 86.466,51.161 82.74,54.885 78.145,50.289 86.466,41.969 94.994,50.496 			"/>
		</g>
		<g>
			<polygon fill="#DBA639" points="269.37,164.648 265.438,160.718 261.714,164.441 257.118,159.845 265.438,151.525 
				273.966,160.052 			"/>
		</g>
		<g>
			<polygon fill="#DBA639" points="286.274,170.879 282.344,166.947 278.62,170.672 274.022,166.076 282.344,157.754 
				290.872,166.283 			"/>
		</g>
		<g>
			<polygon fill="#DBA639" points="299.981,151.566 296.049,147.634 292.325,151.357 287.729,146.762 296.048,138.441 
				304.577,146.97 			"/>
		</g>
		<g>
			<polygon fill="#DBA639" points="313.688,132.253 309.756,128.321 306.032,132.045 301.436,127.448 309.756,119.129 
				318.284,127.656 			"/>
		</g>
		<g>
			<polygon fill="#DBA639" points="313.688,107.332 309.756,103.401 306.032,107.124 301.436,102.528 309.756,94.208 
				318.284,102.736 			"/>
		</g>
		<g>
			<polygon fill="#DBA639" points="107.303,28.847 103.37,24.914 99.647,28.638 95.05,24.043 103.37,15.721 111.899,24.251 			"/>
		</g>
		<g>
			<polygon fill="#DBA639" points="90.398,35.076 86.466,31.146 82.74,34.869 78.145,30.273 86.466,21.953 94.994,30.48 			"/>
		</g>
	</g>
	<g>
		<polygon fill="#DBA639" points="66.665,179.099 60.304,177.761 69.508,143.278 89.295,145.349 97.762,140.833 100.821,146.567 
			90.597,152.02 74.662,150.353 		"/>
	</g>
	<g>
		<polygon fill="#DBA639" points="247.753,190.097 232.512,190.097 218.253,175.84 186.491,175.84 178.19,167.538 160.766,167.538 
			160.766,161.041 180.881,161.041 189.183,169.343 220.944,169.343 235.203,183.601 247.753,183.601 		"/>
	</g>
	<g id="XMLID_1_">
		<polygon fill="#DBA639" points="230.823,115.11 208.239,115.11 168.166,75.037 168.166,51.395 161.562,44.792 140.702,44.412 
			131.687,16.58 137.868,14.578 145.455,38 164.301,38.343 174.663,48.704 174.663,72.346 210.931,108.613 227.146,108.613 
			230.729,102.648 218.928,93.607 218.928,82.16 211.758,74.989 216.352,70.396 225.424,79.468 225.424,90.4 239.285,101.019 		"/>
	</g>
	<g>
		<polygon fill="#DBA639" points="265.02,209.903 244.325,195.396 244.325,144.159 225.736,125.569 225.736,111.862 
			232.233,111.862 232.233,122.878 250.821,141.468 250.821,192.016 268.748,204.583 		"/>
	</g>
	<g>
		<polygon fill="#DBA639" points="263.175,146.062 247.573,146.062 247.573,139.565 260.483,139.565 278.262,121.787 
			292.113,121.787 291.572,71.561 298.068,71.491 298.682,128.284 280.953,128.284 		"/>
	</g>
</g>
</svg>
