<svg enable-background="new 0 0 173 231" height="231" viewBox="0 0 173 231" width="173" xmlns="http://www.w3.org/2000/svg"><g fill="#48768c"><path d="m85.772 190.941c-29.625 0-53.727-24.103-53.727-53.728v-56.188c0-29.625 24.102-53.728 53.727-53.728s53.727 24.102 53.727 53.728v56.188c0 29.626-24.102 53.728-53.727 53.728zm0-157.144c-26.041 0-47.227 21.186-47.227 47.228v56.188c0 26.041 21.186 47.229 47.227 47.229 26.042 0 47.227-21.188 47.227-47.229v-56.188c0-26.042-21.186-47.228-47.227-47.228z"/><path d="m86.568 139.489c-9.067 0-15.648-3.75-15.648-8.917s6.581-8.917 15.648-8.917 15.648 3.75 15.648 8.917-6.58 8.917-15.648 8.917zm-9.051-8.917c.724.826 3.886 2.417 9.051 2.417 5.166 0 8.328-1.591 9.052-2.417-.725-.826-3.887-2.417-9.052-2.417s-8.327 1.591-9.051 2.417z"/><path d="m58.529 63.153-25.831 33.062-1.891 2.515c1.425-.423 2.931-.659 4.494-.659v5.479l2.556-3.38 22.78-29.157 73.661 29.706 2.125 3.111v-5.757c1.518 0 2.979.227 4.368.626l-2.235-3.272z"/><path d="m85.772 15.139c-36.329 0-65.885 29.556-65.885 65.886v29.508c.856-4.009 3.232-7.45 6.5-9.695v-19.813c0-32.746 26.64-59.386 59.385-59.386s59.386 26.64 59.386 59.386v19.691c3.165 2.111 5.509 5.339 6.5 9.119v-28.81c0-36.33-29.555-65.886-65.886-65.886z"/><path d="m100.833 162.802c-3.691-3.692-8.6-5.727-13.82-5.727s-10.127 2.033-13.819 5.725l-4.597-4.596c4.919-4.919 11.459-7.629 18.416-7.629 6.957 0 13.497 2.71 18.416 7.63z"/><circle cx="64.197" cy="105.655" r="4.483"/><circle cx="108.829" cy="105.655" r="4.483"/><path d="m136.424 132.859h-3.25v-38.037h3.25c10.486 0 19.019 8.53 19.019 19.019s-8.533 19.018-19.019 19.018zm3.25-31.109v24.183c5.332-1.436 9.269-6.312 9.269-12.092-.001-5.779-3.937-10.656-9.269-12.091z"/><path d="m38.551 132.859h-3.25c-10.486 0-19.018-8.532-19.018-19.021 0-10.486 8.531-19.018 19.018-19.018h3.25zm-6.5-31.109c-5.332 1.435-9.268 6.312-9.268 12.091s3.936 10.656 9.268 12.092z"/><path d="m25.287 78.006h122.474v6.5h-122.474z"/></g></svg>