<?xml version="1.0" encoding="utf-8"?>
<!-- Generator: Adobe Illustrator 16.0.4, SVG Export Plug-In . SVG Version: 6.00 Build 0)  -->
<!DOCTYPE svg PUBLIC "-//W3C//DTD SVG 1.1//EN" "http://www.w3.org/Graphics/SVG/1.1/DTD/svg11.dtd">
<svg version="1.1" id="Layer_1" xmlns="http://www.w3.org/2000/svg" xmlns:xlink="http://www.w3.org/1999/xlink" x="0px" y="0px"
	 width="417px" height="345px" viewBox="0 0 417 345" enable-background="new 0 0 417 345" xml:space="preserve">
<g>
	<g>
		<g>
			<path fill="#F5DFB2" d="M50.131,155.609h31.181h66.5h89.404l0.174-3.067c0.08-1.404,1.916-34.505-0.045-45.584
				c-2.041-11.529-11.854-23.849-33.281-23.849H77.812c-16.578,0-25.726,13.257-27.83,22.168
				c-2.746,11.63-0.188,45.876-0.078,47.328L50.131,155.609z M74.812,149.109H56.178c-0.563-8.652-1.946-33.55,0.13-42.338
				c1.629-6.899,8.699-17.162,21.504-17.162h126.25c21.908,0,26.115,14.146,26.882,18.481c1.5,8.482,0.523,32.474,0.112,41.019
				h-76.745H74.812L74.812,149.109z"/>
		</g>
		<g>
			<path fill="#F5DFB2" d="M319.438,155.132h84.502v-37.04l-3.268,0.017c-0.225,0.001-22.789,0.091-29.433,0.117
				c-0.692-1.173-1.346-2.344-1.983-3.487c-4.741-8.495-9.644-17.28-25.756-17.28h-24.062L319.438,155.132L319.438,155.132z
				 M397.44,148.632h-71.502v-44.673h17.562c12.295,0,15.561,5.85,20.078,13.947c0.957,1.713,1.945,3.485,3.066,5.279
				c0.943,1.541,1.997,1.541,4.811,1.541c5.281,0,19.521-0.068,25.983-0.1L397.44,148.632L397.44,148.632z"/>
		</g>
		<g>
			<path fill="#F5DFB2" d="M130.812,168.025c8.637,0,15.666-7.028,15.666-15.666c0-8.638-7.029-15.666-15.666-15.666
				c-8.639,0-15.666,7.028-15.666,15.666C115.146,160.997,122.172,168.025,130.812,168.025z M130.812,143.193
				c5.053,0,9.166,4.112,9.166,9.166c0,5.054-4.113,9.166-9.166,9.166c-5.055,0-9.166-4.112-9.166-9.166
				C121.646,147.305,125.756,143.193,130.812,143.193z"/>
		</g>
		<g>
			<path fill="#F5DFB2" d="M97.994,168.025c8.638,0,15.666-7.028,15.666-15.666c0-8.638-7.028-15.666-15.666-15.666
				c-8.639,0-15.666,7.028-15.666,15.666C82.328,160.997,89.355,168.025,97.994,168.025z M97.994,143.193
				c5.054,0,9.166,4.112,9.166,9.166c0,5.054-4.112,9.166-9.166,9.166c-5.055,0-9.166-4.112-9.166-9.166
				C88.828,147.305,92.939,143.193,97.994,143.193z"/>
		</g>
		<g>
			<path fill="#F5DFB2" d="M167.562,133.275h40.25v-35.5h-40.25V133.275z M201.312,126.775h-27.25v-22.5h27.25V126.775z"/>
		</g>
		<g>
			<path fill="#F5DFB2" d="M81.869,122.275h30.25v-24.5h-30.25V122.275z M105.619,115.775h-17.25v-11.5h17.25V115.775z"/>
		</g>
		<g>
			<rect x="184.437" y="101.025" fill="#F5DFB2" width="6.5" height="19.334"/>
		</g>
		<g>
			<rect x="170.812" y="117.109" fill="#F5DFB2" width="33.75" height="6.5"/>
		</g>
		<g>
			<path fill="#F5DFB2" d="M38.228,155.609h17.166v-17.166H38.228V155.609L38.228,155.609z M48.894,149.109h-4.166v-4.166h4.166
				V149.109z"/>
		</g>
		<g>
			<path fill="#F5DFB2" d="M262.561,155.132h63.455v-36.11h-63.455V155.132z M319.516,148.632h-50.455v-23.11h50.455V148.632
				L319.516,148.632z"/>
		</g>
		<g>
			<path fill="#F5DFB2" d="M294.187,168.025c8.638,0,15.666-7.028,15.666-15.666c0-8.638-7.028-15.666-15.666-15.666
				c-8.639,0-15.666,7.028-15.666,15.666C278.521,160.997,285.548,168.025,294.187,168.025z M294.187,143.193
				c5.054,0,9.166,4.112,9.166,9.166c0,5.054-4.112,9.166-9.166,9.166c-5.055,0-9.166-4.112-9.166-9.166
				C285.021,147.305,289.132,143.193,294.187,143.193z"/>
		</g>
		<g>
			<path fill="#F5DFB2" d="M371.613,168.025c8.638,0,15.666-7.028,15.666-15.666c0-8.638-7.028-15.666-15.666-15.666
				s-15.666,7.028-15.666,15.666C355.947,160.997,362.976,168.025,371.613,168.025z M371.613,143.193
				c5.054,0,9.166,4.112,9.166,9.166c0,5.054-4.112,9.166-9.166,9.166s-9.166-4.112-9.166-9.166
				C362.447,147.305,366.56,143.193,371.613,143.193z"/>
		</g>
		<g>
			<rect x="333.888" y="100.709" fill="#F5DFB2" width="6.5" height="51.65"/>
		</g>
		<g>
			<rect x="337.138" y="118.225" fill="#F5DFB2" width="35.77" height="6.5"/>
		</g>
		<g>
			<path fill="#F5DFB2" d="M272.658,125.521h38.194v-25.079h-38.194V125.521z M304.354,119.021h-25.194v-12.079h25.194V119.021z"/>
		</g>
		<g>
			<path fill="#F5DFB2" d="M302.191,74.432c-0.705,3.142-3.314,4.202-5.761,3.769v22.241h-9.348V77.445
				c-2.45-0.38-4.688-1.391-6.5-2.919v32.416h22.348V73.113C302.571,73.418,302.342,73.766,302.191,74.432z"/>
		</g>
		<g>
			<path fill="#F5DFB2" d="M301.045,58.33c1.132,1.737,1.796,3.806,1.796,6.029c0,6.112-4.973,11.084-11.084,11.084
				c-3.822,0-7.198-1.945-9.192-4.896c-1.496,0.596-3.034,1.087-4.636,1.398c-0.708,0.138-1.371,0.142-1.988,0.048
				c2.849,5.878,8.857,9.951,15.816,9.951c9.695,0,17.584-7.888,17.584-17.584c0-3.138-0.836-6.08-2.282-8.633
				C304.984,56.77,302.93,57.241,301.045,58.33z"/>
		</g>
		<g>
			<path fill="#F5DFB2" d="M264.509,80.846l54.564-31.12l-11.689-21.533l-54.567,31.121L264.509,80.846z M310.323,47.233
				l-43.27,24.679l-5.486-10.105l43.27-24.679L310.323,47.233z"/>
		</g>
		<g>
			
				<rect x="290.086" y="46.534" transform="matrix(0.8695 -0.4939 0.4939 0.8695 13.8587 152.0246)" fill="#F5DFB2" width="9.112" height="6.5"/>
		</g>
		<g>
			<path fill="#F5DFB2" d="M326.9,51.779c12.728,0,23.083-10.355,23.083-23.083S339.628,5.613,326.9,5.613
				s-23.083,10.355-23.083,23.083S314.173,51.779,326.9,51.779z M326.9,12.113c9.144,0,16.583,7.439,16.583,16.583
				s-7.439,16.583-16.583,16.583s-16.583-7.439-16.583-16.583S317.757,12.113,326.9,12.113z"/>
		</g>
		<g>
			
				<rect x="323.79" y="8.796" transform="matrix(0.8944 -0.4473 0.4473 0.8944 21.7407 149.3199)" fill="#F5DFB2" width="6.5" height="39.661"/>
		</g>
	</g>
	<g>
		<path fill="#F5DFB2" d="M161.312,337.304h152.736c13.457,0,24.404-10.945,24.404-24.402c0-13.46-10.949-24.405-24.404-24.405
			l-216.332-0.051c-9.874,0-17.906-8.029-17.906-17.901c0-9.873,8.032-17.903,17.905-17.903l261.318,0.059
			c13.457,0,24.406-10.948,24.406-24.405s-10.949-24.405-24.404-24.405l-321.319-0.047c-9.874,0-17.906-8.031-17.906-17.904
			s8.032-17.905,17.905-17.905v-6.5c-13.457,0-24.405,10.948-24.405,24.405c0,13.457,10.948,24.404,24.405,24.404l321.318,0.047
			c9.873,0,17.906,8.032,17.906,17.905s-8.033,17.905-17.904,17.905l-261.319-0.061c-13.458,0-24.406,10.948-24.406,24.405
			s10.948,24.401,24.405,24.401l216.331,0.051c9.873,0,17.904,8.029,17.904,17.905c0,9.872-8.031,17.902-17.904,17.902H161.31v6.5
			H161.312L161.312,337.304z"/>
	</g>
	<g>
		<g>
			<path fill="none" stroke="#48768C" stroke-width="6" stroke-miterlimit="10" d="M188.681,250.225l2.016-1.662
				c1.938-1.594,19.029-15.748,23.208-21.889c3.204-4.707,4.896-10.4,4.896-16.466c0-16.635-13.535-30.169-30.17-30.169
				s-30.169,13.534-30.169,30.169c0,5.983,1.782,11.812,5.156,16.851c4.883,7.295,22.27,20.975,23.008,21.555L188.681,250.225z"/>
		</g>
	</g>
	<g>
		<g>
			<path fill="none" stroke="#48768C" stroke-width="6" stroke-miterlimit="10" d="M293.013,291.917l2.017-1.662
				c1.937-1.594,19.028-15.748,23.208-21.889c3.204-4.707,4.896-10.4,4.896-16.467c0-16.635-13.534-30.168-30.17-30.168
				c-16.637,0-30.17,13.533-30.17,30.168c0,5.984,1.783,11.812,5.156,16.852c4.883,7.295,22.27,20.973,23.008,21.553
				L293.013,291.917z"/>
		</g>
	</g>
	<g>
		<g>
			<path fill="none" stroke="#48768C" stroke-width="6" stroke-miterlimit="10" d="M159.512,333.218l2.016-1.661
				c1.938-1.595,19.028-15.747,23.209-21.89c3.203-4.707,4.896-10.399,4.896-16.466c0-16.635-13.535-30.169-30.171-30.169
				s-30.169,13.534-30.169,30.169c0,5.982,1.781,11.812,5.156,16.851c4.883,7.296,22.27,20.975,23.008,21.555L159.512,333.218z"/>
		</g>
	</g>
</g>
<line fill="none" stroke="#F5DFB2" stroke-width="6.5" stroke-miterlimit="10" x1="263.43" y1="67.362" x2="246.406" y2="77.503"/>
<path fill="none" stroke="#F5DFB2" stroke-width="6.5" stroke-miterlimit="10" d="M387.093,121.475v3.856
	c0,5.163,4.185,9.347,9.348,9.347h4.25"/>
<line fill="none" stroke="#F5DFB2" stroke-width="6.5" stroke-miterlimit="10" x1="265.199" y1="142.942" x2="234.253" y2="142.942"/>
<line fill="none" stroke="#F5DFB2" stroke-width="6.5" stroke-miterlimit="10" x1="251.728" y1="133.525" x2="251.728" y2="152.359"/>
</svg>
