<?xml version="1.0" encoding="utf-8"?>
<!-- Generator: Adobe Illustrator 16.0.4, SVG Export Plug-In . SVG Version: 6.00 Build 0)  -->
<!DOCTYPE svg PUBLIC "-//W3C//DTD SVG 1.1//EN" "http://www.w3.org/Graphics/SVG/1.1/DTD/svg11.dtd">
<svg version="1.1" id="Layer_1" xmlns="http://www.w3.org/2000/svg" xmlns:xlink="http://www.w3.org/1999/xlink" x="0px" y="0px"
	 width="239px" height="105.237px" viewBox="0 0 239 105.237" enable-background="new 0 0 239 105.237" xml:space="preserve">
<g>
	<path fill="#48768C" d="M112.538,95.2H66.941c-9.315,0-16.895-7.579-16.895-16.894V65.832c0-11.27,9.521-20.792,20.792-20.792
		h38.802v6.5H70.839c-7.613,0-14.292,6.678-14.292,14.292v12.474c0,5.731,4.663,10.394,10.395,10.394h45.597
		c3.066,0,6.144-0.033,9.187-0.1c-0.085-2.863,0.259-6.035,0.989-8.532c0.948-3.245,2.545-5.979,4.088-8.623
		c2.209-3.785,4.296-7.359,4.296-12.208h6.5c0,6.607-2.753,11.324-5.182,15.485c-1.408,2.412-2.738,4.69-3.464,7.17
		c-0.775,2.653-0.975,6.764-0.443,9.163l0.849,3.832l-3.923,0.119C121.194,95.134,116.855,95.2,112.538,95.2z"/>
</g>
<g>
	<path fill="#48768C" d="M89.24,37.16h-6.5v-3.261c0-4.627-3.764-8.392-8.391-8.392c-4.628,0-8.393,3.765-8.393,8.392h-6.5
		c0-8.211,6.681-14.892,14.893-14.892c8.211,0,14.891,6.68,14.891,14.892V37.16z"/>
</g>
<g>
	<path fill="#48768C" d="M89.139,34.822h-6.5V22.063c0-7.863,6.422-14.259,14.316-14.259c7.896,0,14.318,6.396,14.318,14.259h-6.5
		c0-4.278-3.507-7.759-7.818-7.759c-4.31,0-7.816,3.481-7.816,7.759V34.822z"/>
</g>
<g>
	<path fill="#48768C" d="M155.5,95.2H99.214l-0.557-2.559c-0.067-0.311-1.663-7.72-2.22-16.554
		c-0.778-12.368,0.872-21.177,4.906-26.183c2.563-3.182,6.135-4.863,10.326-4.863c15.201,0,24.284,10.148,32.299,19.102
		c6.29,7.026,11.722,13.095,18.781,13.095c3.042,0,6.093-1.553,6.159-3.136c0.311-7.464,5.118-7.842,6.079-7.842
		c1.675,0,3.362,0.766,4.75,2.157c1.948,1.953,3.062,4.805,3.056,7.827C182.778,83.323,179.212,95.2,155.5,95.2z M104.503,88.7
		H155.5c13.779,0,20.775-4.195,20.794-12.47c0.003-1.234-0.395-2.194-0.804-2.796c-0.039,0.254-0.071,0.564-0.087,0.939
		c-0.245,5.862-6.626,9.365-12.653,9.365c-9.965,0-16.909-7.758-23.624-15.26c-7.454-8.327-15.161-16.937-27.456-16.937
		c-2.249,0-3.922,0.775-5.264,2.44C100.854,60.866,102.826,79.463,104.503,88.7z"/>
</g>
<g>
	<path fill="#48768C" d="M176.979,72.961l-13.653,0c-6.387,0-11.583-5.195-11.583-11.581v-3.25h13.654
		c6.387,0,11.582,5.195,11.582,11.582V72.961z M159.422,64.63c0.933,1.118,2.337,1.831,3.904,1.831l5.975,0
		c-0.933-1.119-2.336-1.832-3.903-1.832H159.422z"/>
</g>
<g>
	<path fill="#48768C" d="M171.125,72.961v-3.25c0-6.386,5.241-11.582,11.684-11.582h13.781v3.25c0,6.386-5.241,11.581-11.685,11.581
		L171.125,72.961z M182.809,64.63c-1.599,0-3.03,0.713-3.981,1.832l6.078,0c1.599,0,3.03-0.713,3.982-1.831H182.809z"/>
</g>
<g>
	<circle fill="#48768C" cx="75.75" cy="69.654" r="3.917"/>
</g>
<g>
	<path fill="#48768C" d="M76.667,84.23H54.533v-6.5h22.134c6.064,0,7.832-6.721,7.849-6.789l6.303,1.592
		C89.797,76.579,85.524,84.23,76.667,84.23z"/>
</g>
<g>
	<path fill="#48768C" d="M18.788,101.694c-6.261,0-11.354-5.093-11.354-11.353h6.5c0,2.676,2.178,4.853,4.854,4.853
		s4.854-2.177,4.854-4.853h6.5C30.142,96.601,25.049,101.694,18.788,101.694z"/>
</g>
<g>
	<path fill="#48768C" d="M34.995,101.694c-6.261,0-11.354-5.093-11.354-11.353h6.5c0,2.676,2.178,4.853,4.854,4.853
		s4.854-2.177,4.854-4.853h6.5C46.349,96.601,41.256,101.694,34.995,101.694z"/>
</g>
<g>
	<path fill="#48768C" d="M193.34,81.039v-6.5c2.676,0,4.854-2.177,4.854-4.853h6.5C204.693,75.946,199.601,81.039,193.34,81.039z"/>
</g>
<g>
	<path fill="#48768C" d="M209.275,81.039c-6.261,0-11.354-5.093-11.354-11.353h6.5c0,2.676,2.178,4.853,4.854,4.853
		s4.854-2.177,4.854-4.853h6.5C220.629,75.946,215.536,81.039,209.275,81.039z"/>
</g>
<g>
	<path fill="#48768C" d="M225.482,81.039c-6.261,0-11.354-5.093-11.354-11.353h6.5c0,2.676,2.178,4.853,4.854,4.853
		s4.854-2.177,4.854-4.853h6.5C236.836,75.946,231.743,81.039,225.482,81.039z"/>
</g>
<g>
	<path fill="#48768C" d="M51.202,101.694c-6.261,0-11.354-5.093-11.354-11.353h6.5c0,2.676,2.178,4.853,4.854,4.853V101.694z"/>
</g>
<g>
	<rect x="69.349" y="60.487" fill="#48768C" width="13.54" height="6.5"/>
</g>
</svg>
